<svg width="280" height="62" viewBox="0 0 280 62" fill="none" xmlns="http://www.w3.org/2000/svg">
<g clip-path="url(#clip0)">
<path d="M20.3361 51.9978C16.2701 46.7005 12.9811 40.4732 4 38.4725C47.3408 20.2279 53.2918 38.6014 50.8497 50.0687C41.1328 40.4825 30.7346 39.5033 26.7501 40.2119C38.3179 41.6035 45.7727 51.1775 48.3434 55.1717C45.0798 60.9816 37.1584 61.8675 31.2867 60.3389C26.771 59.1632 23.1773 55.6994 20.3361 51.9978Z" fill="#009C87"/>
<path d="M116 1.30831C50.2946 -2.55707 47.8782 30.8785 54.8832 48.0794C58.7391 38.9314 70.1142 19.9781 84.7668 17.3496C72.7362 20.9058 63.9447 41.8948 61.0527 51.9448C71.3731 58.5864 82.0676 56.0034 89.7233 47.1131C99.9977 34.5506 94.2138 25.8535 116 1.30831Z" fill="#006B5C"/>
<g filter="url(#filter0_d)">
<path d="M136.8 16.92V45H129.96V33.44H119.32V45H112.48V16.92H119.32V27.92H129.96V16.92H136.8ZM151.898 45.32C149.711 45.32 147.738 44.8533 145.978 43.92C144.244 42.9867 142.871 41.6533 141.858 39.92C140.871 38.1867 140.378 36.16 140.378 33.84C140.378 31.5467 140.884 29.5333 141.898 27.8C142.911 26.04 144.298 24.6933 146.058 23.76C147.818 22.8267 149.791 22.36 151.978 22.36C154.164 22.36 156.138 22.8267 157.898 23.76C159.658 24.6933 161.044 26.04 162.058 27.8C163.071 29.5333 163.578 31.5467 163.578 33.84C163.578 36.1333 163.058 38.16 162.018 39.92C161.004 41.6533 159.604 42.9867 157.818 43.92C156.058 44.8533 154.084 45.32 151.898 45.32ZM151.898 39.4C153.204 39.4 154.311 38.92 155.218 37.96C156.151 37 156.618 35.6267 156.618 33.84C156.618 32.0533 156.164 30.68 155.258 29.72C154.378 28.76 153.284 28.28 151.978 28.28C150.644 28.28 149.538 28.76 148.658 29.72C147.778 30.6533 147.338 32.0267 147.338 33.84C147.338 35.6267 147.764 37 148.618 37.96C149.498 38.92 150.591 39.4 151.898 39.4ZM174.047 26.4C174.847 25.1733 175.847 24.2133 177.047 23.52C178.247 22.8 179.58 22.44 181.047 22.44V29.68H179.167C177.46 29.68 176.18 30.0533 175.327 30.8C174.473 31.52 174.047 32.8 174.047 34.64V45H167.207V22.68H174.047V26.4ZM196.756 39.2V45H193.276C190.796 45 188.863 44.4 187.476 43.2C186.089 41.9733 185.396 39.9867 185.396 37.24V28.36H182.676V22.68H185.396V17.24H192.236V22.68H196.716V28.36H192.236V37.32C192.236 37.9867 192.396 38.4667 192.716 38.76C193.036 39.0533 193.569 39.2 194.316 39.2H196.756ZM204.006 20.36C202.806 20.36 201.819 20.0133 201.046 19.32C200.299 18.6 199.926 17.72 199.926 16.68C199.926 15.6133 200.299 14.7333 201.046 14.04C201.819 13.32 202.806 12.96 204.006 12.96C205.179 12.96 206.139 13.32 206.886 14.04C207.659 14.7333 208.046 15.6133 208.046 16.68C208.046 17.72 207.659 18.6 206.886 19.32C206.139 20.0133 205.179 20.36 204.006 20.36ZM207.406 22.68V45H200.566V22.68H207.406ZM225.963 22.44C228.576 22.44 230.656 23.2933 232.203 25C233.776 26.68 234.563 29 234.563 31.96V45H227.763V32.88C227.763 31.3867 227.376 30.2267 226.603 29.4C225.829 28.5733 224.789 28.16 223.483 28.16C222.176 28.16 221.136 28.5733 220.363 29.4C219.589 30.2267 219.203 31.3867 219.203 32.88V45H212.363V22.68H219.203V25.64C219.896 24.6533 220.829 23.88 222.003 23.32C223.176 22.7333 224.496 22.44 225.963 22.44ZM242.716 20.36C241.516 20.36 240.529 20.0133 239.756 19.32C239.009 18.6 238.636 17.72 238.636 16.68C238.636 15.6133 239.009 14.7333 239.756 14.04C240.529 13.32 241.516 12.96 242.716 12.96C243.889 12.96 244.849 13.32 245.596 14.04C246.369 14.7333 246.756 15.6133 246.756 16.68C246.756 17.72 246.369 18.6 245.596 19.32C244.849 20.0133 243.889 20.36 242.716 20.36ZM246.156 47.88C246.156 50.6267 245.463 52.6 244.076 53.8C242.689 55.0267 240.756 55.64 238.276 55.64H235.596V49.84H237.236C237.983 49.84 238.516 49.6933 238.836 49.4C239.156 49.1067 239.316 48.6267 239.316 47.96V22.68H246.156V47.88ZM249.714 33.8C249.714 31.5067 250.14 29.4933 250.994 27.76C251.874 26.0267 253.06 24.6933 254.554 23.76C256.047 22.8267 257.714 22.36 259.554 22.36C261.127 22.36 262.5 22.68 263.674 23.32C264.874 23.96 265.794 24.8 266.434 25.84V22.68H273.274V45H266.434V41.84C265.767 42.88 264.834 43.72 263.634 44.36C262.46 45 261.087 45.32 259.514 45.32C257.7 45.32 256.047 44.8533 254.554 43.92C253.06 42.96 251.874 41.6133 250.994 39.88C250.14 38.12 249.714 36.0933 249.714 33.8ZM266.434 33.84C266.434 32.1333 265.954 30.7867 264.994 29.8C264.06 28.8133 262.914 28.32 261.554 28.32C260.194 28.32 259.034 28.8133 258.074 29.8C257.14 30.76 256.674 32.0933 256.674 33.8C256.674 35.5067 257.14 36.8667 258.074 37.88C259.034 38.8667 260.194 39.36 261.554 39.36C262.914 39.36 264.06 38.8667 264.994 37.88C265.954 36.8933 266.434 35.5467 266.434 33.84Z" fill="#111111"/>
<path d="M136.8 16.92H137.8V15.92H136.8V16.92ZM136.8 45V46H137.8V45H136.8ZM129.96 45H128.96V46H129.96V45ZM129.96 33.44H130.96V32.44H129.96V33.44ZM119.32 33.44V32.44H118.32V33.44H119.32ZM119.32 45V46H120.32V45H119.32ZM112.48 45H111.48V46H112.48V45ZM112.48 16.92V15.92H111.48V16.92H112.48ZM119.32 16.92H120.32V15.92H119.32V16.92ZM119.32 27.92H118.32V28.92H119.32V27.92ZM129.96 27.92V28.92H130.96V27.92H129.96ZM129.96 16.92V15.92H128.96V16.92H129.96ZM135.8 16.92V45H137.8V16.92H135.8ZM136.8 44H129.96V46H136.8V44ZM130.96 45V33.44H128.96V45H130.96ZM129.96 32.44H119.32V34.44H129.96V32.44ZM118.32 33.44V45H120.32V33.44H118.32ZM119.32 44H112.48V46H119.32V44ZM113.48 45V16.92H111.48V45H113.48ZM112.48 17.92H119.32V15.92H112.48V17.92ZM118.32 16.92V27.92H120.32V16.92H118.32ZM119.32 28.92H129.96V26.92H119.32V28.92ZM130.96 27.92V16.92H128.96V27.92H130.96ZM129.96 17.92H136.8V15.92H129.96V17.92ZM145.978 43.92L145.504 44.8005L145.509 44.8035L145.978 43.92ZM141.858 39.92L140.989 40.4147L140.995 40.4247L141.858 39.92ZM141.898 27.8L142.761 28.3047L142.764 28.299L141.898 27.8ZM146.058 23.76L146.526 24.6435L146.526 24.6435L146.058 23.76ZM157.898 23.76L157.429 24.6435L157.429 24.6435L157.898 23.76ZM162.058 27.8L161.191 28.299L161.195 28.3047L162.058 27.8ZM162.018 39.92L161.157 39.4113L161.155 39.4153L162.018 39.92ZM157.818 43.92L157.355 43.0336L157.349 43.0365L157.818 43.92ZM155.218 37.96L154.501 37.2629L154.496 37.2681L154.491 37.2734L155.218 37.96ZM155.258 29.72L154.521 30.3957L154.526 30.4012L154.531 30.4066L155.258 29.72ZM148.658 29.72L149.385 30.4061L149.395 30.3957L148.658 29.72ZM148.618 37.96L147.87 38.6244L147.875 38.6301L147.881 38.6357L148.618 37.96ZM151.898 44.32C149.858 44.32 148.048 43.8861 146.446 43.0365L145.509 44.8035C147.427 45.8206 149.564 46.32 151.898 46.32V44.32ZM146.452 43.0395C144.884 42.1951 143.644 40.9933 142.721 39.4153L140.995 40.4247C142.099 42.3133 143.605 43.7782 145.504 44.8005L146.452 43.0395ZM142.727 39.4253C141.839 37.8657 141.378 36.0151 141.378 33.84H139.378C139.378 36.3049 139.903 38.5076 140.989 40.4147L142.727 39.4253ZM141.378 33.84C141.378 31.6984 141.849 29.8642 142.761 28.3047L141.035 27.2953C139.92 29.2025 139.378 31.3949 139.378 33.84H141.378ZM142.764 28.299C143.686 26.6987 144.936 25.4868 146.526 24.6435L145.589 22.8765C143.66 23.8998 142.136 25.3813 141.031 27.301L142.764 28.299ZM146.526 24.6435C148.128 23.7939 149.938 23.36 151.978 23.36V21.36C149.644 21.36 147.507 21.8594 145.589 22.8765L146.526 24.6435ZM151.978 23.36C154.017 23.36 155.827 23.7939 157.429 24.6435L158.366 22.8765C156.448 21.8594 154.312 21.36 151.978 21.36V23.36ZM157.429 24.6435C159.02 25.4868 160.27 26.6987 161.191 28.299L162.924 27.301C161.819 25.3813 160.296 23.8998 158.366 22.8765L157.429 24.6435ZM161.195 28.3047C162.106 29.8642 162.578 31.6984 162.578 33.84H164.578C164.578 31.3949 164.036 29.2025 162.921 27.2953L161.195 28.3047ZM162.578 33.84C162.578 35.9767 162.095 37.8235 161.157 39.4113L162.879 40.4287C164.021 38.4965 164.578 36.29 164.578 33.84H162.578ZM161.155 39.4153C160.236 40.9856 158.976 42.187 157.355 43.0337L158.281 44.8063C160.233 43.7863 161.772 42.321 162.881 40.4247L161.155 39.4153ZM157.349 43.0365C155.747 43.8861 153.937 44.32 151.898 44.32V46.32C154.232 46.32 156.368 45.8206 158.286 44.8035L157.349 43.0365ZM151.898 40.4C153.483 40.4 154.852 39.8042 155.945 38.6466L154.491 37.2734C153.771 38.0358 152.926 38.4 151.898 38.4V40.4ZM155.935 38.6571C157.104 37.4548 157.618 35.7975 157.618 33.84H155.618C155.618 35.4559 155.199 36.5452 154.501 37.2629L155.935 38.6571ZM157.618 33.84C157.618 31.8898 157.121 30.2365 155.985 29.0334L154.531 30.4066C155.208 31.1235 155.618 32.2168 155.618 33.84H157.618ZM155.995 29.0443C154.925 27.8769 153.564 27.28 151.978 27.28V29.28C153.005 29.28 153.831 29.6431 154.521 30.3957L155.995 29.0443ZM151.978 27.28C150.372 27.28 148.995 27.8721 147.921 29.0443L149.395 30.3957C150.08 29.6479 150.917 29.28 151.978 29.28V27.28ZM147.93 29.034C146.814 30.2177 146.338 31.8774 146.338 33.84H148.338C148.338 32.176 148.741 31.089 149.385 30.406L147.93 29.034ZM146.338 33.84C146.338 35.7758 146.8 37.4206 147.87 38.6244L149.365 37.2956C148.729 36.5794 148.338 35.4775 148.338 33.84H146.338ZM147.881 38.6357C148.951 39.8031 150.312 40.4 151.898 40.4V38.4C150.87 38.4 150.045 38.0369 149.355 37.2843L147.881 38.6357ZM174.047 26.4H173.047V29.7639L174.884 26.9463L174.047 26.4ZM177.047 23.52L177.547 24.3859L177.554 24.3817L177.561 24.3775L177.047 23.52ZM181.047 22.44H182.047V21.44H181.047V22.44ZM181.047 29.68V30.68H182.047V29.68H181.047ZM175.327 30.8L175.971 31.5643L175.978 31.5585L175.985 31.5526L175.327 30.8ZM174.047 45V46H175.047V45H174.047ZM167.207 45H166.207V46H167.207V45ZM167.207 22.68V21.68H166.207V22.68H167.207ZM174.047 22.68H175.047V21.68H174.047V22.68ZM174.884 26.9463C175.603 25.8435 176.491 24.9962 177.547 24.3859L176.546 22.6541C175.203 23.4305 174.09 24.5032 173.209 25.8537L174.884 26.9463ZM177.561 24.3775C178.598 23.7553 179.752 23.44 181.047 23.44V21.44C179.408 21.44 177.895 21.8447 176.532 22.6625L177.561 24.3775ZM180.047 22.44V29.68H182.047V22.44H180.047ZM181.047 28.68H179.167V30.68H181.047V28.68ZM179.167 28.68C177.336 28.68 175.777 29.0775 174.668 30.0474L175.985 31.5526C176.583 31.0291 177.584 30.68 179.167 30.68V28.68ZM174.682 30.0357C173.492 31.0398 173.047 32.6917 173.047 34.64H175.047C175.047 32.9083 175.455 32.0002 175.971 31.5643L174.682 30.0357ZM173.047 34.64V45H175.047V34.64H173.047ZM174.047 44H167.207V46H174.047V44ZM168.207 45V22.68H166.207V45H168.207ZM167.207 23.68H174.047V21.68H167.207V23.68ZM173.047 22.68V26.4H175.047V22.68H173.047ZM196.756 39.2H197.756V38.2H196.756V39.2ZM196.756 45V46H197.756V45H196.756ZM187.476 43.2L186.813 43.949L186.822 43.9562L187.476 43.2ZM185.396 28.36H186.396V27.36H185.396V28.36ZM182.676 28.36H181.676V29.36H182.676V28.36ZM182.676 22.68V21.68H181.676V22.68H182.676ZM185.396 22.68V23.68H186.396V22.68H185.396ZM185.396 17.24V16.24H184.396V17.24H185.396ZM192.236 17.24H193.236V16.24H192.236V17.24ZM192.236 22.68H191.236V23.68H192.236V22.68ZM196.716 22.68H197.716V21.68H196.716V22.68ZM196.716 28.36V29.36H197.716V28.36H196.716ZM192.236 28.36V27.36H191.236V28.36H192.236ZM192.716 38.76L192.04 39.4972L192.04 39.4972L192.716 38.76ZM195.756 39.2V45H197.756V39.2H195.756ZM196.756 44H193.276V46H196.756V44ZM193.276 44C190.951 44 189.28 43.4386 188.13 42.4438L186.822 43.9562C188.445 45.3614 190.641 46 193.276 46V44ZM188.139 42.451C187.053 41.4906 186.396 39.8404 186.396 37.24H184.396C184.396 40.1329 185.126 42.4561 186.813 43.949L188.139 42.451ZM186.396 37.24V28.36H184.396V37.24H186.396ZM185.396 27.36H182.676V29.36H185.396V27.36ZM183.676 28.36V22.68H181.676V28.36H183.676ZM182.676 23.68H185.396V21.68H182.676V23.68ZM186.396 22.68V17.24H184.396V22.68H186.396ZM185.396 18.24H192.236V16.24H185.396V18.24ZM191.236 17.24V22.68H193.236V17.24H191.236ZM192.236 23.68H196.716V21.68H192.236V23.68ZM195.716 22.68V28.36H197.716V22.68H195.716ZM196.716 27.36H192.236V29.36H196.716V27.36ZM191.236 28.36V37.32H193.236V28.36H191.236ZM191.236 37.32C191.236 38.118 191.425 38.9329 192.04 39.4972L193.392 38.0228C193.367 38.0004 193.236 37.8554 193.236 37.32H191.236ZM192.04 39.4972C192.638 40.0455 193.485 40.2 194.316 40.2V38.2C193.654 38.2 193.433 38.0612 193.392 38.0228L192.04 39.4972ZM194.316 40.2H196.756V38.2H194.316V40.2ZM201.046 19.32L200.352 20.0398L200.365 20.0524L200.378 20.0646L201.046 19.32ZM201.046 14.04L201.726 14.7728L201.727 14.7719L201.046 14.04ZM206.886 14.04L206.192 14.7598L206.205 14.7724L206.218 14.7846L206.886 14.04ZM206.886 19.32L207.566 20.0528L207.567 20.0519L206.886 19.32ZM207.406 22.68H208.406V21.68H207.406V22.68ZM207.406 45V46H208.406V45H207.406ZM200.566 45H199.566V46H200.566V45ZM200.566 22.68V21.68H199.566V22.68H200.566ZM204.006 19.36C203.012 19.36 202.275 19.079 201.713 18.5754L200.378 20.0646C201.363 20.9477 202.6 21.36 204.006 21.36V19.36ZM201.74 18.6002C201.189 18.0692 200.926 17.4493 200.926 16.68H198.926C198.926 17.9907 199.409 19.1308 200.352 20.0398L201.74 18.6002ZM200.926 16.68C200.926 15.8767 201.194 15.2671 201.726 14.7728L200.365 13.3072C199.405 14.1995 198.926 15.3499 198.926 16.68H200.926ZM201.727 14.7719C202.29 14.2478 203.022 13.96 204.006 13.96V11.96C202.59 11.96 201.348 12.3922 200.365 13.3081L201.727 14.7719ZM204.006 13.96C204.957 13.96 205.656 14.2436 206.192 14.7598L207.58 13.3202C206.622 12.3964 205.401 11.96 204.006 11.96V13.96ZM206.218 14.7846C206.774 15.2825 207.046 15.8887 207.046 16.68H209.046C209.046 15.3379 208.545 14.1842 207.553 13.2954L206.218 14.7846ZM207.046 16.68C207.046 17.4374 206.778 18.0538 206.205 18.5881L207.567 20.0519C208.54 19.1462 209.046 18.0026 209.046 16.68H207.046ZM206.205 18.5872C205.672 19.0828 204.968 19.36 204.006 19.36V21.36C205.391 21.36 206.607 20.9439 207.566 20.0528L206.205 18.5872ZM206.406 22.68V45H208.406V22.68H206.406ZM207.406 44H200.566V46H207.406V44ZM201.566 45V22.68H199.566V45H201.566ZM200.566 23.68H207.406V21.68H200.566V23.68ZM232.203 25L231.462 25.6715L231.467 25.6776L231.473 25.6836L232.203 25ZM234.563 45V46H235.563V45H234.563ZM227.763 45H226.763V46H227.763V45ZM226.603 29.4L225.873 30.0832L225.873 30.0832L226.603 29.4ZM220.363 29.4L221.093 30.0832L221.093 30.0832L220.363 29.4ZM219.203 45V46H220.203V45H219.203ZM212.363 45H211.363V46H212.363V45ZM212.363 22.68V21.68H211.363V22.68H212.363ZM219.203 22.68H220.203V21.68H219.203V22.68ZM219.203 25.64H218.203V28.8024L220.021 26.2149L219.203 25.64ZM222.003 23.32L222.434 24.2225L222.442 24.2185L222.45 24.2144L222.003 23.32ZM225.963 23.44C228.336 23.44 230.131 24.2033 231.462 25.6715L232.944 24.3285C231.181 22.3834 228.816 21.44 225.963 21.44V23.44ZM231.473 25.6836C232.827 27.1298 233.563 29.1787 233.563 31.96H235.563C235.563 28.8213 234.725 26.2302 232.933 24.3164L231.473 25.6836ZM233.563 31.96V45H235.563V31.96H233.563ZM234.563 44H227.763V46H234.563V44ZM228.763 45V32.88H226.763V45H228.763ZM228.763 32.88C228.763 31.2161 228.329 29.7817 227.333 28.7168L225.873 30.0832C226.423 30.6717 226.763 31.5572 226.763 32.88H228.763ZM227.333 28.7168C226.341 27.6563 225.02 27.16 223.483 27.16V29.16C224.559 29.16 225.318 29.4904 225.873 30.0832L227.333 28.7168ZM223.483 27.16C221.946 27.16 220.625 27.6563 219.633 28.7168L221.093 30.0832C221.648 29.4904 222.406 29.16 223.483 29.16V27.16ZM219.633 28.7168C218.636 29.7817 218.203 31.2161 218.203 32.88H220.203C220.203 31.5572 220.543 30.6717 221.093 30.0832L219.633 28.7168ZM218.203 32.88V45H220.203V32.88H218.203ZM219.203 44H212.363V46H219.203V44ZM213.363 45V22.68H211.363V45H213.363ZM212.363 23.68H219.203V21.68H212.363V23.68ZM218.203 22.68V25.64H220.203V22.68H218.203ZM220.021 26.2149C220.608 25.3799 221.403 24.7144 222.434 24.2225L221.572 22.4175C220.256 23.0456 219.184 23.9268 218.385 25.0651L220.021 26.2149ZM222.45 24.2144C223.469 23.705 224.633 23.44 225.963 23.44V21.44C224.359 21.44 222.883 21.7616 221.556 22.4256L222.45 24.2144ZM239.756 19.32L239.062 20.0398L239.075 20.0524L239.088 20.0646L239.756 19.32ZM239.756 14.04L240.436 14.7728L240.437 14.7719L239.756 14.04ZM245.596 14.04L244.902 14.7598L244.915 14.7724L244.928 14.7846L245.596 14.04ZM245.596 19.32L246.276 20.0528L246.277 20.0519L245.596 19.32ZM244.076 53.8L243.422 53.0438L243.413 53.051L244.076 53.8ZM235.596 55.64H234.596V56.64H235.596V55.64ZM235.596 49.84V48.84H234.596V49.84H235.596ZM238.836 49.4L238.16 48.6628L238.16 48.6628L238.836 49.4ZM239.316 22.68V21.68H238.316V22.68H239.316ZM246.156 22.68H247.156V21.68H246.156V22.68ZM242.716 19.36C241.722 19.36 240.985 19.079 240.423 18.5754L239.088 20.0646C240.073 20.9477 241.31 21.36 242.716 21.36V19.36ZM240.45 18.6002C239.899 18.0692 239.636 17.4493 239.636 16.68H237.636C237.636 17.9907 238.119 19.1308 239.062 20.0398L240.45 18.6002ZM239.636 16.68C239.636 15.8767 239.904 15.2671 240.436 14.7728L239.075 13.3072C238.115 14.1995 237.636 15.3499 237.636 16.68H239.636ZM240.437 14.7719C241 14.2478 241.732 13.96 242.716 13.96V11.96C241.3 11.96 240.058 12.3922 239.075 13.3081L240.437 14.7719ZM242.716 13.96C243.667 13.96 244.366 14.2436 244.902 14.7598L246.29 13.3202C245.332 12.3964 244.111 11.96 242.716 11.96V13.96ZM244.928 14.7846C245.484 15.2825 245.756 15.8887 245.756 16.68H247.756C247.756 15.3379 247.255 14.1842 246.263 13.2954L244.928 14.7846ZM245.756 16.68C245.756 17.4374 245.488 18.0538 244.915 18.5881L246.277 20.0519C247.25 19.1462 247.756 18.0026 247.756 16.68H245.756ZM244.915 18.5872C244.382 19.0828 243.678 19.36 242.716 19.36V21.36C244.101 21.36 245.317 20.9439 246.276 20.0528L244.915 18.5872ZM245.156 47.88C245.156 50.4826 244.498 52.1122 243.422 53.0438L244.73 54.5562C246.427 53.0878 247.156 50.7707 247.156 47.88H245.156ZM243.413 53.051C242.264 54.0678 240.596 54.64 238.276 54.64V56.64C240.916 56.64 243.115 55.9855 244.739 54.549L243.413 53.051ZM238.276 54.64H235.596V56.64H238.276V54.64ZM236.596 55.64V49.84H234.596V55.64H236.596ZM235.596 50.84H237.236V48.84H235.596V50.84ZM237.236 50.84C238.067 50.84 238.913 50.6855 239.512 50.1372L238.16 48.6628C238.118 48.7012 237.898 48.84 237.236 48.84V50.84ZM239.512 50.1372C240.127 49.5729 240.316 48.758 240.316 47.96H238.316C238.316 48.4954 238.185 48.6404 238.16 48.6628L239.512 50.1372ZM240.316 47.96V22.68H238.316V47.96H240.316ZM239.316 23.68H246.156V21.68H239.316V23.68ZM245.156 22.68V47.88H247.156V22.68H245.156ZM250.994 27.76L250.102 27.3073L250.097 27.3183L250.994 27.76ZM254.554 23.76L255.084 24.608L255.084 24.608L254.554 23.76ZM263.674 23.32L263.195 24.1979L263.203 24.2024L263.674 23.32ZM266.434 25.84L265.582 26.3641L267.434 29.373V25.84H266.434ZM266.434 22.68V21.68H265.434V22.68H266.434ZM273.274 22.68H274.274V21.68H273.274V22.68ZM273.274 45V46H274.274V45H273.274ZM266.434 45H265.434V46H266.434V45ZM266.434 41.84H267.434V38.427L265.592 41.3003L266.434 41.84ZM263.634 44.36L263.163 43.4776L263.155 43.4821L263.634 44.36ZM254.554 43.92L254.013 44.7612L254.024 44.768L254.554 43.92ZM250.994 39.88L250.094 40.3163L250.098 40.3245L250.102 40.3327L250.994 39.88ZM264.994 29.8L264.267 30.4873L264.277 30.4974L264.994 29.8ZM258.074 29.8L257.357 29.1026L257.357 29.1029L258.074 29.8ZM258.074 37.88L257.338 38.5575L257.347 38.5675L257.357 38.5774L258.074 37.88ZM264.994 37.88L264.277 37.1826L264.267 37.1928L264.994 37.88ZM250.714 33.8C250.714 31.6314 251.117 29.7742 251.891 28.2017L250.097 27.3183C249.164 29.2125 248.714 31.3819 248.714 33.8H250.714ZM251.885 28.2127C252.692 26.6242 253.76 25.4351 255.084 24.608L254.024 22.912C252.36 23.9516 251.056 25.4291 250.102 27.3073L251.885 28.2127ZM255.084 24.608C256.411 23.7786 257.892 23.36 259.554 23.36V21.36C257.535 21.36 255.683 21.8748 254.024 22.912L255.084 24.608ZM259.554 23.36C260.989 23.36 262.192 23.6511 263.195 24.1979L264.153 22.4421C262.808 21.7089 261.265 21.36 259.554 21.36V23.36ZM263.203 24.2024C264.265 24.7686 265.045 25.4919 265.582 26.3641L267.285 25.3159C266.542 24.1081 265.483 23.1514 264.144 22.4376L263.203 24.2024ZM267.434 25.84V22.68H265.434V25.84H267.434ZM266.434 23.68H273.274V21.68H266.434V23.68ZM272.274 22.68V45H274.274V22.68H272.274ZM273.274 44H266.434V46H273.274V44ZM267.434 45V41.84H265.434V45H267.434ZM265.592 41.3003C265.027 42.182 264.228 42.9099 263.163 43.4776L264.104 45.2424C265.44 44.5301 266.507 43.578 267.276 42.3797L265.592 41.3003ZM263.155 43.4821C262.152 44.0289 260.949 44.32 259.514 44.32V46.32C261.225 46.32 262.768 45.9711 264.113 45.2379L263.155 43.4821ZM259.514 44.32C257.882 44.32 256.413 43.9029 255.084 43.072L254.024 44.768C255.681 45.8037 257.519 46.32 259.514 46.32V44.32ZM255.095 43.0788C253.765 42.2238 252.693 41.0178 251.885 39.4273L250.102 40.3327C251.055 42.2089 252.356 43.6962 254.013 44.7612L255.095 43.0788ZM251.894 39.4437C251.117 37.8413 250.714 35.9681 250.714 33.8H248.714C248.714 36.2185 249.164 38.3987 250.094 40.3163L251.894 39.4437ZM267.434 33.84C267.434 31.9387 266.893 30.3184 265.71 29.1026L264.277 30.4974C265.014 31.2549 265.434 32.3279 265.434 33.84H267.434ZM265.72 29.1128C264.598 27.9262 263.188 27.32 261.554 27.32V29.32C262.639 29.32 263.523 29.7005 264.267 30.4872L265.72 29.1128ZM261.554 27.32C259.92 27.32 258.503 27.9252 257.357 29.1026L258.79 30.4974C259.565 29.7015 260.467 29.32 261.554 29.32V27.32ZM257.357 29.1029C256.196 30.2971 255.674 31.9077 255.674 33.8H257.674C257.674 32.279 258.085 31.2229 258.791 30.4971L257.357 29.1029ZM255.674 33.8C255.674 35.695 256.197 37.318 257.338 38.5575L258.809 37.2025C258.084 36.4153 257.674 35.3184 257.674 33.8H255.674ZM257.357 38.5774C258.503 39.7548 259.92 40.36 261.554 40.36V38.36C260.467 38.36 259.565 37.9785 258.79 37.1826L257.357 38.5774ZM261.554 40.36C263.188 40.36 264.598 39.7538 265.72 38.5672L264.267 37.1928C263.523 37.9795 262.639 38.36 261.554 38.36V40.36ZM265.71 38.5774C266.893 37.3616 267.434 35.7413 267.434 33.84H265.434C265.434 35.3521 265.014 36.4251 264.277 37.1826L265.71 38.5774Z" fill="black"/>
</g>
</g>
<defs>
<filter id="filter0_d" x="107.48" y="11.96" width="170.794" height="52.68" filterUnits="userSpaceOnUse" color-interpolation-filters="sRGB">
<feFlood flood-opacity="0" result="BackgroundImageFix"/>
<feColorMatrix in="SourceAlpha" type="matrix" values="0 0 0 0 0 0 0 0 0 0 0 0 0 0 0 0 0 0 127 0" result="hardAlpha"/>
<feOffset dy="4"/>
<feGaussianBlur stdDeviation="2"/>
<feComposite in2="hardAlpha" operator="out"/>
<feColorMatrix type="matrix" values="0 0 0 0 0 0 0 0 0 0 0 0 0 0 0 0 0 0 0.25 0"/>
<feBlend mode="normal" in2="BackgroundImageFix" result="effect1_dropShadow"/>
<feBlend mode="normal" in="SourceGraphic" in2="effect1_dropShadow" result="shape"/>
</filter>
<clipPath id="clip0">
<rect width="280" height="62" fill="white"/>
</clipPath>
</defs>
</svg>
